<?xml version="1.0" encoding="UTF-8" standalone="no"?>
<!-- Created with Inkscape (http://www.inkscape.org/) -->

<svg
   width="50"
   height="50"
   viewBox="0 0 13.229166 13.229167"
   version="1.1"
   id="svg5"
   sodipodi:docname="advent.svg"
   inkscape:version="1.2.1 (9c6d41e4, 2022-07-14)"
   inkscape:export-filename="advent/bear.svg"
   inkscape:export-xdpi="96"
   inkscape:export-ydpi="96"
   xmlns:inkscape="http://www.inkscape.org/namespaces/inkscape"
   xmlns:sodipodi="http://sodipodi.sourceforge.net/DTD/sodipodi-0.dtd"
   xmlns="http://www.w3.org/2000/svg"
   xmlns:svg="http://www.w3.org/2000/svg">
  <sodipodi:namedview
     id="namedview7"
     pagecolor="#ffffff"
     bordercolor="#000000"
     borderopacity="0.25"
     inkscape:showpageshadow="2"
     inkscape:pageopacity="0.0"
     inkscape:pagecheckerboard="0"
     inkscape:deskcolor="#d1d1d1"
     inkscape:document-units="mm"
     showgrid="false"
     inkscape:zoom="1.9158497"
     inkscape:cx="92.648188"
     inkscape:cy="-32.361621"
     inkscape:window-width="1309"
     inkscape:window-height="804"
     inkscape:window-x="0"
     inkscape:window-y="25"
     inkscape:window-maximized="0"
     inkscape:current-layer="layer1" />
  <defs
     id="defs2" />
  <g
     inkscape:label="Layer 1"
     inkscape:groupmode="layer"
     id="layer1">
    <path
       id="path16690-2"
       style="fill:#000000;fill-opacity:1;stroke:#000000;stroke-width:0;stroke-linecap:round;stroke-linejoin:miter;stroke-miterlimit:6;stroke-dasharray:none;stroke-opacity:1;paint-order:markers stroke fill"
       d="m 6.8071988,1.4435854 a 5.2124038,5.2124038 0 0 0 -5.212601,5.212602 5.2124038,5.2124038 0 0 0 5.212601,5.2120846 5.2124038,5.2124038 0 0 0 5.2126022,-5.2120846 5.2124038,5.2124038 0 0 0 -5.2126022,-5.212602 z m -0.124023,2.117184 a 3.095253,3.095253 0 0 1 3.094901,3.095418 3.095253,3.095253 0 0 1 -3.094901,3.095418 3.095253,3.095253 0 0 1 -3.095418,-3.095418 3.095253,3.095253 0 0 1 3.095418,-3.095418 z" />
    <path
       id="path16692-4"
       style="fill:#b3b3b3;fill-opacity:1;stroke:#000000;stroke-width:0;stroke-linecap:round;stroke-linejoin:miter;stroke-miterlimit:6;stroke-dasharray:none;stroke-opacity:1;paint-order:markers stroke fill"
       d="m 6.6502538,3.5279204 a 3.095253,3.095253 0 0 0 -3.095419,3.095419 3.095253,3.095253 0 0 0 3.095419,3.095418 3.095253,3.095253 0 0 0 3.095418,-3.095418 3.095253,3.095253 0 0 0 -3.095418,-3.095419 z m 0.295589,0.922425 a 2.1939828,2.1939828 0 0 1 1.627808,1.145666 l -1.200444,0.355017 a 0.99959075,0.99959075 0 0 0 -0.427364,-0.289905 z m -0.720886,0.01757 v 1.219563 a 0.99959075,0.99959075 0 0 0 -0.368453,0.271818 l -1.097091,-0.473356 a 2.1939828,2.1939828 0 0 1 1.465544,-1.018025 z m -1.732194,1.688269 1.127063,0.486275 a 0.99959075,0.99959075 0 0 0 0.10852,0.417029 l -0.788065,0.95498 a 2.1939828,2.1939828 0 0 1 -0.499711,-1.392163 2.1939828,2.1939828 0 0 1 0.05219,-0.466121 z m 4.308781,0.124023 a 2.1939828,2.1939828 0 0 1 0.02687,0.342098 2.1939828,2.1939828 0 0 1 -0.451135,1.328601 l -0.878499,-0.873848 a 0.99959075,0.99959075 0 0 0 0.117822,-0.446485 z m -2.535763,1.260388 a 0.99959075,0.99959075 0 0 0 0.352433,0.0646 0.99959075,0.99959075 0 0 0 0.331246,-0.05736 l 0.902271,0.89762 a 2.1939828,2.1939828 0 0 1 -1.21698,0.37052 2.1939828,2.1939828 0 0 1 -1.149801,-0.327629 z" />
  </g>
</svg>
