<?xml version="1.0" encoding="UTF-8" standalone="no"?>
<!-- Created with Inkscape (http://www.inkscape.org/) -->

<svg
   width="50"
   height="50"
   viewBox="0 0 13.229166 13.229167"
   version="1.1"
   id="svg5"
   sodipodi:docname="advent.svg"
   inkscape:version="1.2.1 (9c6d41e4, 2022-07-14)"
   inkscape:export-filename="advent/ribbonmaker.svg"
   inkscape:export-xdpi="96"
   inkscape:export-ydpi="96"
   xml:space="preserve"
   xmlns:inkscape="http://www.inkscape.org/namespaces/inkscape"
   xmlns:sodipodi="http://sodipodi.sourceforge.net/DTD/sodipodi-0.dtd"
   xmlns="http://www.w3.org/2000/svg"
   xmlns:svg="http://www.w3.org/2000/svg"><sodipodi:namedview
     id="namedview7"
     pagecolor="#ffffff"
     bordercolor="#000000"
     borderopacity="0.25"
     inkscape:showpageshadow="2"
     inkscape:pageopacity="0.0"
     inkscape:pagecheckerboard="0"
     inkscape:deskcolor="#d1d1d1"
     inkscape:document-units="mm"
     showgrid="false"
     inkscape:zoom="1.9225905"
     inkscape:cx="54.873881"
     inkscape:cy="-1.0402631"
     inkscape:window-width="1309"
     inkscape:window-height="804"
     inkscape:window-x="0"
     inkscape:window-y="25"
     inkscape:window-maximized="0"
     inkscape:current-layer="layer1" /><defs
     id="defs2" /><g
     inkscape:label="Layer 1"
     inkscape:groupmode="layer"
     id="layer1"><rect
       style="fill:#e80000;fill-opacity:1;stroke:#a96625;stroke-width:0;stroke-linecap:round;stroke-miterlimit:6;stroke-dasharray:none;stroke-opacity:1;paint-order:markers stroke fill"
       id="rect31830-6"
       width="8.1008177"
       height="8.1008177"
       x="2.6243083"
       y="4.4571147" /><path
       id="rect31884-0"
       style="fill:#ffff00;fill-opacity:1;stroke:#a96625;stroke-width:0;stroke-linecap:round;stroke-miterlimit:6;stroke-dasharray:none;stroke-opacity:1;paint-order:markers stroke fill"
       d="M 4.57173,0.395005 C 3.56337,0.387105 2.715225,1.17169 2.655568,2.189727 2.601548,3.117815 3.224966,3.949533 4.13093,4.158082 c 0,0 0.911853,0.09505 1.879472,0.188103 l -0.02584,0.04909 h -0.0863 v 3.15743 l -3.31711,0.02015 0.0098,1.675867 3.307292,-0.02015 v 3.38739 H 7.57411 V 9.218753 l 3.237012,-0.01964 -0.0098,-1.675866 -3.227194,0.01964 V 4.485709 c 0.09816,0.0076 0.191391,0.01476 0.272852,0.02015 L 7.78755,4.392171 C 8.738745,4.308221 9.624241,4.222286 9.625164,4.21492 10.532311,4.011573 11.160585,3.183216 11.111895,2.254833 11.056345,1.20362 10.1591,0.396373 9.107883,0.451843 8.359868,0.491803 7.704586,0.966554 7.43305,1.664689 L 6.893031,2.682714 6.337509,1.620247 C 6.069983,0.920565 5.417685,0.44235 4.669911,0.398099 c -0.03284,-0.0019 -0.06566,-0.0028 -0.09819,-0.0031 z M 4.71539,1.4275 c 0.01754,1.3e-4 0.03551,5.21e-4 0.05323,0.0016 0.403484,0.02381 0.755726,0.28191 0.900203,0.659391 l 0.764295,1.46141 -0.04548,0.08578 C 5.760971,3.568571 4.490341,3.464245 4.478193,3.45843 3.989181,3.345785 3.652481,2.896405 3.68186,2.395446 3.71426,1.846385 4.171524,1.42351 4.715388,1.427547 Z m 4.340304,0.05323 c 0.543878,-9.16e-4 0.999105,0.424863 1.028361,0.974101 0.0265,0.501119 -0.312368,0.948496 -0.802018,1.058333 0,0 -1.228253,0.09807 -1.869654,0.162264 L 7.347793,3.551922 8.099168,2.136504 C 8.245809,1.759859 8.599376,1.503781 9.002989,1.482281 c 0.01772,-9.28e-4 0.03516,-0.0015 0.05271,-0.0016 z" /></g></svg>
